#!OML:ASF H:\Male1\Project 1\Capture day 1\Session 1\Male1.ASF
:FULLY-SPECIFIED
:DEGREES
344
root -20.3899 14.6611 0.33174 44.583 83.3203 -314.533
lowerback 7.85096 0.997832 -7.2111
upperback 4.16975 1.00491 -3.17538
thorax -0.120049 0.508794 0.677173
lowerneck -9.45615 3.59825 7.18974
upperneck 19.6652 4.32417 -1.59774
head 7.8249 2.54253 -1.29125
rclavicle 1.74931e-014 3.73715e-014
rhumerus -37.9648 1.95949 -88.7571
rradius 37.0752
rwrist -18.8428
rhand -17.2739 2.50055
rfingers 7.12502
rthumb 8.97102 -27.2887
lclavicle 1.74931e-014 3.73715e-014
lhumerus -35.8922 21.0172 72.9387
lradius 21.1732
lwrist -14.4943
lhand -18.7819 11.3569
lfingers 7.12502
lthumb 7.51567 41.2034
rfemur -21.764 4.19047 20.0011
rtibia 59.9848
rfoot -23.4222 -14.7603
rtoes -36.2982
lfemur -11.5472 -14.059 -31.1059
ltibia 36.0343
lfoot -29.5181 20.9641
ltoes -9.12665
345
root -20.2907 14.6696 0.311481 45.8483 83.3436 -313.161
lowerback 8.06905 0.93283 -7.37438
upperback 4.22502 0.893912 -3.16515
thorax -0.176393 0.453569 0.7842
lowerneck -9.48304 3.6492 7.2546
upperneck 19.8268 4.40771 -1.69661
head 7.89103 2.58145 -1.32471
rclavicle -3.18055e-015 -9.54166e-015
rhumerus -38.0685 1.75942 -88.6759
rradius 37.0797
rwrist -18.7101
rhand -17.1358 2.57658
rfingers 7.12502
rthumb 9.10435 -27.2069
lclavicle -3.18055e-015 -9.54166e-015
lhumerus -34.9789 20.0567 73.8802
lradius 21.1162
lwrist -14.3287
lhand -18.8839 11.3255
lfingers 7.12502
lthumb 7.41721 41.1755
rfemur -23.4925 4.07558 19.8981
rtibia 62.0895
rfoot -22.5468 -14.8412
rtoes -35.5167
lfemur -10.5808 -14.1566 -31.4845
ltibia 35.2633
lfoot -29.4125 21.1801
ltoes -9.11503
346
root -20.1852 14.6794 0.293958 46.8816 83.4335 -312.032
lowerback 8.27415 0.883139 -7.47617
upperback 4.26709 0.805776 -3.12194
thorax -0.240525 0.409994 0.890037
lowerneck -9.46731 3.68402 7.30152
upperneck 19.9868 4.47124 -1.76594
head 7.94712 2.61308 -1.34822
rclavicle 2.98177e-015 -4.77083e-015
rhumerus -38.2093 1.53833 -88.5679
rradius 37.045
rwrist -18.57
rhand -17.0019 2.64862
rfingers 7.12502
rthumb 9.2335 -27.1292
lclavicle 2.98177e-015 -4.77083e-015
lhumerus -34.0042 18.7879 74.9669
lradius 21.1399
lwrist -13.9302
lhand -18.8965 11.2843
lfingers 7.12502
lthumb 7.40508 41.1347
rfemur -25.1444 4.18044 19.9133
rtibia 63.6376
rfoot -22.0362 -15.1192
rtoes -34.783
lfemur -9.59984 -14.3185 -31.7896
ltibia 34.5106
lfoot -29.3693 21.4297
ltoes -9.12541
347
root -20.0736 14.69 0.279096 47.7195 83.5656 -311.111
lowerback 8.46188 0.84866 -7.54056
upperback 4.30286 0.740582 -3.05525
thorax -0.303045 0.377724 0.998143
lowerneck -9.42568 3.70593 7.32713
upperneck 20.1329 4.5155 -1.79756
head 7.99175 2.6377 -1.35824
rclavicle -1.17283e-014 -1.43125e-014
rhumerus -38.3693 1.30645 -88.4432
rradius 36.9672
rwrist -18.4376
rhand -16.8863 2.67965
rfingers 7.12502
rthumb 9.34504 -27.0932
lclavicle -1.17283e-014 -1.43125e-014
lhumerus -33.0314 17.1641 76.1873
lradius 21.3425
lwrist -13.1985
lhand -18.8412 11.3025
lfingers 7.12502
lthumb 7.45839 41.151
rfemur -26.6883 4.464 20.0109
rtibia 64.6044
rfoot -21.8176 -15.5809
rtoes -34.0327
lfemur -8.59614 -14.5058 -32.0394
ltibia 33.7571
lfoot -29.3841 21.6724
ltoes -9.11937
348
root -19.9558 14.7007 0.266301 48.4521 83.7254 -310.306
lowerback 8.63302 0.825151 -7.58198
upperback 4.34079 0.693091 -2.97631
thorax -0.355224 0.353959 1.10518
lowerneck -9.40036 3.71815 7.34318
upperneck 20.269 4.53863 -1.79282
head 8.03412 2.65459 -1.35654
rclavicle -1.98785e-015 3.18055e-015
rhumerus -38.5691 1.07873 -88.3163
rradius 36.891
rwrist -18.3261
rhand -16.806 2.64841
rfingers 7.12502
rthumb 9.4225 -27.121
lclavicle -1.98785e-015 3.18055e-015
lhumerus -32.1137 15.182 77.506
lradius 21.8026
lwrist -12.1037
lhand -18.7505 11.444
lfingers 7.12502
lthumb 7.54594 41.2894
rfemur -28.1035 4.87051 20.151
rtibia 64.9991
rfoot -21.788 -16.204
rtoes -33.2134
lfemur -7.56984 -14.693 -32.2507
ltibia 32.9933
lfoot -29.4351 21.8747
ltoes -9.01751
349
root -19.832 14.7113 0.255009 49.1881 83.9102 -309.52
lowerback 8.77449 0.793331 -7.61764
upperback 4.37928 0.637666 -2.88218
thorax -0.389794 0.325346 1.22613
lowerneck -9.40623 3.73285 7.34395
upperneck 20.3966 4.55806 -1.75913
head 8.07816 2.67054 -1.34257
rclavicle -1.31198e-014 -1.98785e-014
rhumerus -38.7363 0.888587 -88.1939
rradius 36.7569
rwrist -18.2218
rhand -16.7512 2.55246
rfingers 7.12502
rthumb 9.47542 -27.2145
lclavicle -1.31198e-014 -1.98785e-014
lhumerus -31.3188 12.9621 78.8505
lradius 22.5588
lwrist -10.726
lhand -18.6392 11.6816
lfingers 7.12502
lthumb 7.6534 41.5231
rfemur -29.3829 5.34489 20.3037
rtibia 64.8491
rfoot -21.8497 -16.9547
rtoes -32.3831
lfemur -6.53506 -14.8692 -32.4301
ltibia 32.2167
lfoot -29.4863 22.0216
ltoes -8.77221
